<svg width="1200" height="1500" viewBox="0 0 1200 1500" fill="none" xmlns="http://www.w3.org/2000/svg">
  <rect width="1200" height="1500" fill="#0F172A"/>
  <rect width="1200" height="1500" fill="url(#bg)"/>
  <circle cx="906" cy="317" r="244" fill="#FB7185" fill-opacity="0.18"/>
  <circle cx="301" cy="1220" r="288" fill="#F59E0B" fill-opacity="0.12"/>
  <circle cx="604" cy="780" r="420" fill="#F8FAFC" fill-opacity="0.04"/>
  <rect x="168" y="193" width="864" height="1114" rx="44" fill="#111827" fill-opacity="0.74" stroke="rgba(255,255,255,0.2)"/>
  <rect x="238" y="264" width="724" height="674" rx="28" fill="url(#panel)"/>
  <path d="M600 387C545.876 387 502 430.876 502 485V733H564V585H636V733H698V485C698 430.876 654.124 387 600 387Z" fill="#F8FAFC"/>
  <rect x="530" y="335" width="140" height="88" rx="18" fill="#FDE68A"/>
  <rect x="530" y="838" width="140" height="316" rx="22" fill="#F8FAFC"/>
  <circle cx="600" cy="1031" r="54" fill="#FB7185"/>
  <path d="M325 1015C325 974.131 358.131 941 399 941H801C841.869 941 875 974.131 875 1015V1089C875 1129.87 841.869 1163 801 1163H399C358.131 1163 325 1129.87 325 1089V1015Z" fill="#1F2937"/>
  <text x="600" y="1036" text-anchor="middle" fill="#F8FAFC" font-family="Arial, Helvetica, sans-serif" font-size="74" font-weight="700">USA SONGS</text>
  <text x="600" y="1115" text-anchor="middle" fill="#FCA5A5" font-family="Arial, Helvetica, sans-serif" font-size="42" font-weight="700" letter-spacing="4">HITS • ARTISTS • LYRICS</text>
  <defs>
    <linearGradient id="bg" x1="140" y1="96" x2="1032" y2="1374" gradientUnits="userSpaceOnUse">
      <stop stop-color="#7F1D1D"/>
      <stop offset="0.48" stop-color="#1E293B"/>
      <stop offset="1" stop-color="#111827"/>
    </linearGradient>
    <linearGradient id="panel" x1="238" y1="264" x2="962" y2="938" gradientUnits="userSpaceOnUse">
      <stop stop-color="#F87171"/>
      <stop offset="0.52" stop-color="#FB7185"/>
      <stop offset="1" stop-color="#F59E0B"/>
    </linearGradient>
  </defs>
</svg>
